<svg width="22" height="28" viewBox="0 0 22 28" fill="none" xmlns="http://www.w3.org/2000/svg">
<path d="M20.64 14.4721C18.5467 9.03206 11.0933 8.73873 12.8933 0.832062C13.0267 0.245395 12.4 -0.207938 11.8933 0.0987289C7.05333 2.95206 3.57333 8.67206 6.49333 16.1654C6.73333 16.7787 6.01333 17.3521 5.49333 16.9521C3.08 15.1254 2.82667 12.4987 3.04 10.6187C3.12 9.9254 2.21333 9.59206 1.82667 10.1654C0.92 11.5521 0 13.7921 0 17.1654C0.506667 24.6321 6.81333 26.9254 9.08 27.2187C12.32 27.6321 15.8267 27.0321 18.3467 24.7254C21.12 22.1521 22.1333 18.0454 20.64 14.4721ZM8.26667 21.1787C10.1867 20.7121 11.1733 19.3254 11.44 18.0987C11.88 16.1921 10.16 14.3254 11.32 11.3121C11.76 13.8054 15.68 15.3654 15.68 18.0854C15.7867 21.4587 12.1333 24.3521 8.26667 21.1787Z" fill="url(#paint0_linear_853_775)"/>
<defs>
<linearGradient id="paint0_linear_853_775" x1="10.6642" y1="0" x2="10.6642" y2="27.3398" gradientUnits="userSpaceOnUse">
<stop offset="0.269231" stop-color="#E90C11"/>
<stop offset="0.692308" stop-color="#E65B5E"/>
</linearGradient>
</defs>
</svg>
