<svg width="20" height="20" viewBox="0 0 20 20" fill="none" xmlns="http://www.w3.org/2000/svg">
<path d="M18.8418 15.8334L11.2751 8.25839C12.0501 6.30839 11.6668 4.00839 10.0751 2.42506C8.15842 0.508391 5.17509 0.333391 3.05009 1.88339L6.25009 5.09172L5.06676 6.25006L1.87509 3.07506C0.32509 5.19172 0.50009 8.18339 2.41676 10.0917C3.96676 11.6417 6.22509 12.0501 8.15842 11.3251L15.7501 18.9167C16.0751 19.2417 16.6001 19.2417 16.9251 18.9167L18.8418 17.0001C19.1668 16.6667 19.1668 16.1584 18.8418 15.8334ZM16.3418 17.1584L8.45842 9.27506C7.95009 9.65006 7.38342 9.87506 6.79176 9.95839C5.65842 10.1251 4.46676 9.78339 3.60009 8.91672C2.80842 8.13339 2.44176 7.08339 2.50009 6.05006L5.07509 8.62506L8.60842 5.09172L6.03342 2.50006C7.08342 2.45839 8.10842 2.82506 8.90009 3.60839C9.32627 4.03394 9.64292 4.55647 9.82289 5.13122C10.0029 5.70596 10.0408 6.31577 9.93342 6.90839C9.82939 7.50559 9.57726 8.06716 9.20009 8.54172L17.0834 16.4167L16.3418 17.1584Z" fill="black"/>
</svg>
