<svg width="16" height="14" viewBox="0 0 16 14" fill="none" xmlns="http://www.w3.org/2000/svg">
<path d="M8.67333 13.6668V5.3335C8.47889 5.01961 8.21778 4.76739 7.89 4.57683C7.56222 4.38627 7.20361 4.29127 6.81417 4.29183C6.39194 4.29183 6.01194 4.39683 5.67417 4.60683C5.33639 4.81683 5.07 5.09655 4.875 5.446H4.04167C4.04167 4.02377 4.53194 2.81627 5.5125 1.8235C6.49306 0.830718 7.6875 0.334052 9.09583 0.333496C10.5031 0.333496 11.6953 0.829607 12.6725 1.82183C13.6497 2.8135 14.1383 4.02155 14.1383 5.446H13.305C13.1106 5.096 12.8442 4.81627 12.5058 4.60683C12.1681 4.39683 11.7931 4.29183 11.3808 4.29183C10.9914 4.29183 10.6331 4.38683 10.3058 4.57683C9.97861 4.76683 9.71194 5.01905 9.50583 5.3335V13.6668H8.67333ZM8.96417 4.38766H9.21917C9.49583 4.10266 9.82056 3.87655 10.1933 3.70933C10.5661 3.54211 10.9639 3.4585 11.3867 3.4585C11.6994 3.4585 11.9928 3.50905 12.2667 3.61016C12.5406 3.71127 12.7914 3.85572 13.0192 4.0435C12.7514 3.2135 12.2597 2.52655 11.5442 1.98266C10.8303 1.43877 10.0097 1.16683 9.0825 1.16683C8.15528 1.16683 7.33417 1.44155 6.61917 1.991C5.90417 2.54044 5.41806 3.246 5.16083 4.10766C5.38861 3.91989 5.63944 3.76461 5.91333 3.64183C6.18722 3.51905 6.48083 3.45794 6.79417 3.4585C7.2175 3.4585 7.61528 3.54211 7.9875 3.70933C8.35972 3.87655 8.68556 4.10294 8.965 4.3885M11.3975 13.6668V9.18016H15.5V13.6668H14.6667V10.0135H12.2308V13.6668H11.3975ZM1.92667 13.6668V10.9002C1.74056 10.8313 1.58556 10.7235 1.46167 10.5768C1.33778 10.4307 1.26194 10.256 1.23417 10.0527L0.5 3.39433H0.62C0.832778 3.39433 1.01528 3.46544 1.1675 3.60766C1.31972 3.74988 1.40972 3.92183 1.4375 4.1235L2.0175 9.18016H5.43583C5.81917 9.18016 6.13944 9.3085 6.39667 9.56516C6.65389 9.82183 6.7825 10.1421 6.7825 10.526V10.9585H6.14083V13.6668H5.42V10.9585H2.66333V13.6668H1.92667Z" fill="black"/>
</svg>
